<svg width="64" height="64" viewBox="0 0 64 64" fill="none" xmlns="http://www.w3.org/2000/svg">
<path d="M31.3905 41.5663C26.0116 41.5663 21.6515 37.2063 21.6515 31.8273C21.6515 26.4483 26.0116 22.0883 31.3905 22.0883C36.7695 22.0883 41.1296 26.4483 41.1296 31.8273C41.1296 37.2063 36.7695 41.5663 31.3905 41.5663ZM31.3905 18.9314C24.2682 18.9314 18.4946 24.705 18.4946 31.8273C18.4946 38.9496 24.2682 44.7232 31.3905 44.7232C38.5129 44.7232 44.2865 38.9496 44.2865 31.8273C44.2897 24.705 38.5161 18.9314 31.3905 18.9314Z" fill="white"/>
<path d="M44.7977 15.4059C43.132 15.4059 41.7832 16.7547 41.7832 18.4205C41.7832 20.0862 43.132 21.435 44.7977 21.435C46.4635 21.435 47.8123 20.0862 47.8123 18.4205C47.8123 16.7579 46.4635 15.4059 44.7977 15.4059Z" fill="white"/>
<path d="M52.457 41.9578C52.3438 44.4548 51.9265 45.8101 51.574 46.7125C50.7136 48.9476 48.9476 50.7104 46.7125 51.574C45.8101 51.9265 44.4548 52.3438 41.9578 52.457C39.257 52.5799 38.4484 52.6058 31.6075 52.6058C24.7665 52.6058 23.9611 52.5799 21.2603 52.457C18.7633 52.3438 17.408 51.9265 16.5056 51.574C15.393 51.1632 14.387 50.5098 13.559 49.6591C12.7083 48.8311 12.055 47.8252 11.6442 46.7125C11.2949 45.8101 10.8776 44.4548 10.7644 41.9578C10.6415 39.257 10.6156 38.4484 10.6156 31.6075C10.6156 24.7665 10.6415 23.9579 10.7644 21.2571C10.8776 18.7601 11.2949 17.4048 11.6442 16.5024C12.055 15.3897 12.7116 14.3838 13.559 13.559C14.3838 12.7083 15.3897 12.055 16.5056 11.6442C17.408 11.2949 18.7633 10.8776 21.2603 10.7612C23.9611 10.6383 24.7697 10.6124 31.6107 10.6124C38.4484 10.6124 39.257 10.6383 41.9578 10.7612C44.4548 10.8744 45.8101 11.2916 46.7125 11.641C47.8252 12.0517 48.8311 12.7051 49.6559 13.5558C50.5066 14.3806 51.1599 15.3897 51.5707 16.4992C51.9201 17.4016 52.3373 18.7568 52.4537 21.2539C52.5767 23.9547 52.6025 24.7633 52.6025 31.6042C52.6025 38.4452 52.5799 39.257 52.457 41.9578ZM57.0661 21.0501C56.94 18.3234 56.5098 16.4636 55.8758 14.8334C55.2322 13.1256 54.2262 11.5763 52.9227 10.2986C51.6451 8.99514 50.0958 7.98921 48.388 7.34231C46.7546 6.71159 44.8947 6.27817 42.1681 6.15526C39.4382 6.02911 38.5648 6 31.6107 6C24.6565 6 23.7832 6.02911 21.0533 6.15526C18.3234 6.27817 16.4636 6.71159 14.8334 7.34555C13.1256 7.98921 11.5763 8.99514 10.2986 10.2986C8.99514 11.5763 7.98921 13.1256 7.34555 14.8334C6.71159 16.4636 6.27817 18.3234 6.15526 21.0501C6.02911 23.7832 6 24.6565 6 31.6107C6 38.5648 6.02911 39.4382 6.15526 42.1681C6.27817 44.8947 6.71159 46.7578 7.34555 48.3848C7.98921 50.0926 8.99514 51.6419 10.2986 52.9195C11.5795 54.223 13.1256 55.2289 14.8366 55.8726C16.4636 56.5033 18.3266 56.9367 21.0533 57.0629C23.7865 57.189 24.6565 57.2181 31.6107 57.2181C38.5648 57.2181 39.4382 57.189 42.1681 57.0629C44.8947 56.9367 46.7546 56.5066 48.3848 55.8726C51.8263 54.5432 54.5432 51.823 55.8758 48.3815C56.5098 46.7513 56.9432 44.8915 57.0661 42.1648C57.1923 39.4349 57.2214 38.5616 57.2214 31.6075C57.2181 24.6565 57.189 23.7832 57.0661 21.0501Z" fill="white"/>
</svg>
