<svg width="64" height="64" viewBox="0 0 64 64" fill="none" xmlns="http://www.w3.org/2000/svg">
<path d="M25.8253 40.7573V22.9126L41.3152 31.8334L25.8253 40.7573ZM60.2887 17.5207C59.603 14.972 57.5912 12.9601 55.0424 12.2744C50.3847 11 31.7573 11 31.7573 11C31.7573 11 13.1266 11 8.47221 12.2259C5.97195 12.9116 3.91158 14.972 3.22587 17.5207C2 22.1784 2 31.8366 2 31.8366C2 31.8366 2 41.5433 3.22587 46.1524C3.91158 48.7012 5.92344 50.7131 8.47221 51.3988C13.1784 52.6732 31.7573 52.6732 31.7573 52.6732C31.7573 52.6732 50.3847 52.6732 55.0424 51.4473C57.5912 50.7616 59.603 48.753 60.2887 46.2042C61.5146 41.5401 61.5146 31.8851 61.5146 31.8851C61.5146 31.8851 61.5631 22.1784 60.2887 17.5207Z" fill="white"/>
</svg>
