<svg width="64" height="64" viewBox="0 0 64 64" fill="none" xmlns="http://www.w3.org/2000/svg">
<path d="M52.5745 8H10.6038C9.16765 8 8 9.16442 8 10.6038V52.5745C8 54.0139 9.16765 55.1783 10.6038 55.1783H33.1999V36.9099H27.0511V29.7875H33.1999V24.5379C33.1999 18.4442 36.9196 15.1256 42.3568 15.1256C44.9637 15.1256 47.1988 15.3197 47.8489 15.407V21.7757L44.0775 21.7789C41.1212 21.7789 40.5519 23.1827 40.5519 25.2463V29.7908H47.6031L46.6813 36.9131H40.5487V55.1847H52.5713C54.0106 55.1847 55.1783 54.0171 55.1783 52.581V10.6038C55.1815 9.16442 54.0139 8 52.5745 8Z" fill="white"/>
</svg>
