<svg width="40" height="40" viewBox="0 0 40 40" fill="none" xmlns="http://www.w3.org/2000/svg">
<path d="M27.8578 26.625C28.5275 24.7889 28.9178 22.8319 29.007 20.863H34.093C33.9583 22.9301 33.3833 24.8908 32.4616 26.625H27.8578ZM23.1794 33.7718C24.7726 32.2606 26.0755 30.4755 27.0554 28.4865H31.2661C29.2999 31.1014 26.4558 33.0221 23.1794 33.7718ZM20.9995 33.195V28.4865H24.92C23.9155 30.2625 22.5944 31.8666 20.9995 33.195ZM20.9995 20.863H27.13C27.0299 22.8674 26.585 24.8217 25.8362 26.625H20.9995V20.863ZM20.9995 13.375H25.8362C26.5704 15.1419 27.0108 17.0398 27.1236 18.9996H20.9995V13.375ZM20.9995 6.80595C22.5944 8.13341 23.9155 9.72745 24.92 11.4998H20.9995V6.80595ZM31.3052 11.4998H27.0572C26.0755 9.5109 24.7726 7.73853 23.1758 6.22365C26.474 6.97154 29.3354 8.88129 31.3052 11.4998ZM32.4962 13.375C33.3969 15.0746 33.9592 16.9798 34.093 18.9996H29.0015C28.9014 17.0735 28.5138 15.1719 27.8587 13.375H32.4962ZM19.1252 11.4998H15.2056C16.211 9.72654 17.5321 8.1325 19.1252 6.80413V11.4998ZM19.1252 18.9996H13.002C13.1139 17.0398 13.5561 15.141 14.2894 13.375H19.1252V18.9996ZM19.1252 26.625H14.2894C13.5406 24.8208 13.0957 22.8801 12.9956 20.8748H19.1252V26.625ZM19.1252 33.195C17.5302 31.8675 16.2092 30.2726 15.2047 28.4993H19.1252V33.195ZM8.75847 28.5002H13.0693C14.051 30.4909 15.3557 32.2651 16.9543 33.7818C13.6343 33.0357 10.751 31.1233 8.75847 28.5002ZM7.55293 26.625C6.62216 24.8918 6.04259 22.9429 5.90612 20.8748H11.1168C11.2059 22.8446 11.5972 24.7889 12.2668 26.625H7.55293ZM7.51835 13.3623H12.2677C11.6108 15.1601 11.2232 17.0735 11.1241 18.9996H5.90794C6.04168 16.9789 6.60942 15.0618 7.51835 13.3623ZM16.957 6.21637C15.3584 7.73126 14.0528 9.50635 13.0693 11.4998H8.72025C10.7137 8.87311 13.6152 6.9588 16.957 6.21637ZM20.0814 4H20.0778H20.0632H20.0614H20.055C11.236 4.00546 4 11.1404 4 19.9377C4 22.0885 4.42853 24.1839 5.27378 26.1637C6.90967 29.9978 9.99494 33.0867 13.8372 34.7262C15.817 35.5715 17.9115 36 20.0623 36H20.0632H20.0678C28.9142 35.9964 36 28.7085 36 19.9377C35.9991 11.1422 28.8896 4.01001 20.0814 4Z" fill="white"/>
</svg>
