<svg width="145" height="32" viewBox="0 0 145 32" fill="none" xmlns="http://www.w3.org/2000/svg">
<path d="M6.5 22.6676H8.01802V10.0332H8.01674C7.17961 10.0332 6.5 9.35482 6.5 8.51515V6.65161H15.3667L18.3748 19.4512H18.4269L21.435 6.65161H30.3017V10.0332H28.7837V22.6676C29.6221 22.6676 30.3017 23.346 30.3017 24.1844V26.0479H22.638V22.6676H24.2601V11.3835L24.2081 11.2615L20.2841 26.0479H15.7593L11.8353 11.3835L11.7832 11.2615V22.6676H13.4054V26.0479H6.5V22.6676Z" fill="#EE2624"/>
<path d="M46.3828 22.8455C47.192 22.8455 47.8474 23.501 47.8474 24.3102V26.048H41.9367V23.2609H41.8846C41.1783 25.6339 39.1649 26.4646 37.0981 26.4646C34.56 26.4646 32.9645 24.8628 32.9645 22.0757V15.1056C32.2709 15.1056 31.7095 14.5428 31.7095 13.8505V11.9019H37.8819V20.6797C37.8819 21.8966 38.4573 22.7858 39.5561 22.7858C40.7858 22.7858 41.4654 21.8661 41.4654 20.5907V15.1043C40.8582 15.1043 40.3666 14.6127 40.3666 14.0068V11.9019H46.3828V22.8455Z" fill="#EE2624"/>
<path d="M51.4766 19.9201L56.145 14.8084H52.4966V16.4102C50.5035 16.4102 48.8877 14.7944 48.8877 12.8013V11.9032H61.5336V15.6697L54.6536 23.1441H58.246V21.3352C60.2391 21.3352 61.8562 22.951 61.8562 24.9442V26.0506H49.3171V25.4828C49.3183 23.4236 50.0881 21.4394 51.4766 19.9201Z" fill="#EE2624"/>
<path d="M64.8296 6H69.747V10.3889H69.2186C66.7948 10.3889 64.8296 8.42501 64.8296 6ZM63.365 22.8455H64.8296V15.1043H63.365V11.9006H69.747V22.8442C70.7404 22.8442 71.5458 23.6496 71.5458 24.643V26.0467H63.365V22.8455Z" fill="#EE2624"/>
<path d="M72.6897 22.8455H74.1543V9.20371C73.3452 9.20371 72.6897 8.54823 72.6897 7.73905V6H79.0717V17.7732L82.6298 15.0738V14.9557C81.4739 14.9557 80.5376 14.0194 80.5376 12.8622V11.9006H88.5939V15.0154L84.487 17.18L87.678 22.8443C88.3424 22.8443 88.881 23.3829 88.881 24.0472V26.0467H81.3748V22.9929H82.7874L81.0877 19.9683L79.073 21.7188V22.9941H80.093V26.048H72.691V22.8455H72.6897Z" fill="#EE2624"/>
<path d="M96.4121 23.4096C98.1397 23.4096 99.1852 21.6007 99.1852 19.821C98.4776 19.7918 97.3534 19.7016 96.3867 19.9391C95.4441 20.1767 94.6858 20.7394 94.6858 21.9551C94.6858 23.0831 95.5763 23.4096 96.4121 23.4096ZM90.7897 16.4699C90.8672 14.5416 91.7056 13.2967 92.8819 12.5256C94.0595 11.7546 95.575 11.4878 97.0409 11.4878C100.337 11.4878 103.502 12.377 103.502 16.5881V22.8469C104.297 22.8469 104.94 23.4909 104.94 24.2849V26.0493H99.3414V23.9139H99.2894C98.2693 25.7825 96.8046 26.4647 94.8687 26.4647C92.4881 26.4647 90.1597 25.0699 90.1597 22.0453C90.1597 19.0487 92.5923 17.4773 94.9475 17.2994C95.6271 17.2397 96.3067 17.1813 96.9876 17.1813C97.6672 17.1813 98.3735 17.2105 99.0543 17.2105C99.0543 16.4394 99.0543 15.6989 98.766 15.1348C98.5043 14.6 98.0076 14.2444 97.2492 14.2444C95.9675 14.2444 95.3667 15.1933 95.3921 16.4687H90.7897V16.4699Z" fill="#EE2624"/>
<path d="M104.759 11.9019H112.611V15.1056H111.199L112.663 22.3425H112.715L114.886 11.9031H120.431L122.55 22.3425H122.602L124.065 15.1056H122.732V11.9019H129.191V15.1056H128.25L125.19 26.0492H119.2L117.368 16.292H117.316L115.38 26.0492H109.391L106.435 15.1056C105.509 15.1056 104.757 14.3535 104.757 13.4275V11.9019H104.759Z" fill="#EE2624"/>
<path d="M132.274 6H137.191V10.3889H136.663C134.239 10.3889 132.274 8.42501 132.274 6ZM130.809 22.8455H132.274V15.1043H130.809V11.9006H137.191V22.8442C137.914 22.8442 138.5 23.4299 138.5 24.1527V26.0467H130.809V22.8455Z" fill="#EE2624"/>
</svg>
