<svg width="160" height="56" viewBox="0 0 160 56" fill="none" xmlns="http://www.w3.org/2000/svg">
<g clip-path="url(#clip0)">
<path d="M56.5246 32.8991H57.6724V23.3458H57.6714C57.0385 23.3458 56.5246 22.8329 56.5246 22.198V20.7889H63.229L65.5035 30.467H65.5428L67.8173 20.7889H74.5217V23.3458H73.3739V32.8991C74.0078 32.8991 74.5217 33.412 74.5217 34.0459V35.455H68.7269V32.8991H69.9535V24.3668L69.9141 24.2746L66.9471 35.455H63.5258L60.5587 24.3668L60.5194 24.2746V32.8991H61.7459V35.455H56.5246V32.8991Z" fill="white"/>
<path d="M86.6807 33.0335C87.2926 33.0335 87.7882 33.5291 87.7882 34.141V35.455H83.319V33.3476H83.2796C82.7455 35.1418 81.2231 35.77 79.6604 35.77C77.7413 35.77 76.5349 34.5588 76.5349 32.4514V27.1811C76.0104 27.1811 75.5859 26.7556 75.5859 26.2321V24.7587H80.253V31.3958C80.253 32.316 80.6881 32.9884 81.519 32.9884C82.4487 32.9884 82.9626 32.293 82.9626 31.3286V27.1801C82.5035 27.1801 82.1318 26.8084 82.1318 26.3503V24.7587H86.6807V33.0335Z" fill="white"/>
<path d="M90.5324 30.8215L94.0622 26.9564H91.3036V28.1676C89.7966 28.1676 88.5748 26.9458 88.5748 25.4388V24.7597H98.1367V27.6076L92.9346 33.2592H95.6509V31.8915C97.158 31.8915 98.3807 33.1132 98.3807 34.6203V35.4569H88.8995V35.0275C88.9004 33.4706 89.4825 31.9702 90.5324 30.8215Z" fill="white"/>
<path d="M100.629 20.2962H104.348V23.6147H103.948C102.115 23.6147 100.629 22.1298 100.629 20.2962ZM99.522 33.0335H100.629V27.1801H99.522V24.7577H104.348V33.0326C105.099 33.0326 105.708 33.6415 105.708 34.3926V35.454H99.522V33.0335Z" fill="white"/>
<path d="M106.572 33.0335H107.679V22.7186C107.068 22.7186 106.572 22.2229 106.572 21.6111V20.2962H111.398V29.1982L114.088 27.1571V27.0678C113.214 27.0678 112.506 26.3599 112.506 25.4848V24.7577H118.598V27.1129L115.492 28.7496L117.905 33.0326C118.407 33.0326 118.815 33.4398 118.815 33.9422V35.454H113.139V33.1449H114.207L112.922 30.858L111.399 32.1815V33.1459H112.17V35.455H106.573V33.0335H106.572Z" fill="white"/>
<path d="M124.51 33.46C125.816 33.46 126.606 32.0922 126.606 30.7465C126.071 30.7244 125.221 30.6562 124.49 30.8359C123.778 31.0155 123.204 31.441 123.204 32.3602C123.204 33.2131 123.878 33.46 124.51 33.46ZM120.258 28.2127C120.317 26.7546 120.951 25.8133 121.84 25.2303C122.731 24.6473 123.877 24.4456 124.985 24.4456C127.478 24.4456 129.87 25.1179 129.87 28.302V33.0345C130.471 33.0345 130.957 33.5215 130.957 34.1218V35.4559H126.725V33.8413H126.685C125.914 35.2542 124.806 35.77 123.343 35.77C121.543 35.77 119.782 34.7154 119.782 32.4284C119.782 30.1625 121.621 28.9744 123.402 28.8399C123.916 28.7948 124.43 28.7506 124.945 28.7506C125.459 28.7506 125.993 28.7727 126.507 28.7727C126.507 28.1896 126.507 27.6297 126.289 27.2032C126.092 26.7988 125.716 26.5299 125.143 26.5299C124.173 26.5299 123.719 27.2474 123.738 28.2117H120.258V28.2127Z" fill="white"/>
<path d="M130.821 24.7587H136.758V27.1811H135.69L136.797 32.6532H136.837L138.478 24.7597H142.671L144.273 32.6532H144.313L145.419 27.1811H144.41V24.7587H149.295V27.1811H148.583L146.269 35.4559H141.74L140.355 28.0782H140.316L138.852 35.4559H134.323L132.088 27.1811C131.388 27.1811 130.819 26.6125 130.819 25.9123V24.7587H130.821Z" fill="white"/>
<path d="M151.626 20.2962H155.344V23.6147H154.944C153.112 23.6147 151.626 22.1298 151.626 20.2962ZM150.518 33.0335H151.626V27.1801H150.518V24.7577H155.344V33.0326C155.891 33.0326 156.333 33.4753 156.333 34.0219V35.454H150.518V33.0335Z" fill="white"/>
<path d="M34.72 29.1108C34.7076 29.6477 34.2686 30.1789 33.723 30.3229C33.2678 30.4421 32.8048 30.5554 32.3995 30.6514C31.8366 30.784 31.3765 30.4488 31.3688 29.9003C31.3592 29.2395 31.3669 24.1853 31.3669 24.1853L33.723 23.6022C34.2686 23.4918 34.7066 23.8193 34.7191 24.3514C34.7345 25.0219 34.7594 25.5972 34.77 26.5664C34.7604 27.5384 34.7354 28.4336 34.72 29.1108ZM21.5572 34.5895C21.5572 34.5895 21.1067 34.7365 20.5611 34.8796C20.1059 34.9987 19.6429 35.1121 19.2375 35.2081C18.6737 35.3416 18.2146 35.0054 18.2069 34.457C18.1964 33.655 18.1964 28.7592 18.2069 27.9514C18.2146 27.3991 18.6737 26.8507 19.2375 26.721C19.6429 26.6279 20.1059 26.5251 20.5611 26.4329C21.0251 26.3387 21.4112 26.5616 21.5236 26.9564C21.5437 27.2426 21.561 27.2311 21.5735 27.5336C21.5908 28.2578 21.561 34.4215 21.5572 34.5895ZM38.3614 22.1269C38.3614 21.0348 37.7841 20.1934 36.8533 20.0215C36.8351 20.0061 36.4711 19.861 35.9649 19.9792C35.0082 20.203 18.7611 23.7636 17.3338 24.2362L17.3357 24.2371C17.0466 24.3034 16.7565 24.3707 16.4617 24.4398C15.6894 24.6185 14.3649 25.7192 14.3649 27.4241V36.8256C14.3649 38.5305 15.6894 39.0156 16.4617 38.835C18.5066 38.3567 25.0535 36.7315 25.0535 36.7315C25.0535 36.7315 25.0602 26.1322 25.0707 25.6232L27.2482 25.1247C27.4759 25.0718 27.6929 25.2438 27.6929 25.4772C27.6968 26.8526 27.6747 30.857 27.6747 31.758C27.6747 33.4629 28.9983 33.9489 29.7705 33.7673C31.8126 33.29 33.6885 32.8462 35.9562 32.2987C37.2885 31.9769 38.3623 30.6678 38.3614 29.3653C38.3614 29.2107 38.3614 29.0531 38.3614 28.8956L38.3844 28.8899C38.3873 28.7266 38.3902 28.5681 38.3902 28.4173C38.3892 28.0475 38.3844 27.4981 38.3806 26.8401L39.0299 26.6797C39.9376 26.4559 40.5744 25.6414 40.5744 24.7068V22.8425L38.3863 23.3832C38.3863 23.3842 38.3614 22.246 38.3614 22.1269Z" fill="white"/>
<path d="M32.2668 12.5054C32.2851 12.2874 32.0843 12.1155 31.8711 12.1654L29.2527 12.7753C28.6668 16.7836 25.6585 17.7018 25.0217 17.8526C24.9516 17.8689 24.9026 17.9304 24.9026 18.0015V20.7879C31.2304 19.3145 32.1372 14.0615 32.2668 12.5054Z" fill="white"/>
<path d="M26.1224 48.9089C14.5204 48.9089 5.11505 39.5035 5.11505 27.9015C5.11505 16.2995 14.5204 6.89317 26.1224 6.89317C37.7244 6.89317 47.1298 16.2985 47.1298 27.9005C47.1298 39.5026 37.7244 48.9089 26.1224 48.9089ZM26.1224 5C13.3524 5 3 15.3524 3 28.1224C3 40.8924 13.3524 51.2448 26.1224 51.2448C38.8924 51.2448 49.2448 40.8924 49.2448 28.1224C49.2448 15.3524 38.8934 5 26.1224 5Z" fill="white"/>
</g>
<defs>
<clipPath id="clip0">
<rect width="160" height="56" fill="white"/>
</clipPath>
</defs>
</svg>
