<svg width="240" height="80" viewBox="0 0 240 80" fill="none" xmlns="http://www.w3.org/2000/svg">
<g clip-path="url(#clip0)">
<path d="M97.3097 43.2509H97.249L93.7637 28.4236H83.4937V30.5815C83.4937 31.5524 84.28 32.3387 85.2496 32.3387V46.9739H83.4937V50.8903H91.4933V46.9739H89.6135V33.7609L89.6742 33.9025L94.2188 50.889H99.4613L104.007 33.7596L104.067 33.9012V46.9714H102.189V50.8877H111.068V48.7285C111.068 47.7589 110.28 46.9714 109.309 46.9714V32.3387H111.068V28.4224H100.795L97.3097 43.2509Z" fill="white"/>
<path d="M129.694 47.18V34.5043H122.724V36.9416C122.724 37.6445 123.293 38.2146 123.996 38.2146V44.5695C123.996 46.0474 123.208 47.1118 121.784 47.1118C120.512 47.1118 119.844 46.0802 119.844 44.6719V34.5031H112.694V36.7583C112.694 37.5611 113.345 38.2134 114.149 38.2134V46.2863C114.149 49.5162 115.998 51.3707 118.937 51.3707C121.33 51.3707 123.663 50.4087 124.481 47.6592H124.541V50.8878H131.39V48.8753C131.39 47.9398 130.63 47.18 129.694 47.18Z" fill="white"/>
<path d="M143.438 45.4279V47.5238H139.275L147.245 38.8669V34.5043H132.595V35.5447C132.595 37.853 134.466 39.7252 136.775 39.7252V37.8695H141L135.592 43.7908C133.984 45.5505 133.092 47.8487 133.092 50.2317V50.889H147.618V49.6084C147.619 47.3001 145.747 45.4279 143.438 45.4279Z" fill="white"/>
<path d="M156.759 47.18V34.5043H149.365V38.2146H151.062V47.1813H149.365V50.8903H158.842V49.2646C158.842 48.1129 157.91 47.18 156.759 47.18Z" fill="white"/>
<path d="M156.146 32.7508H156.759V27.6676H151.062C151.062 30.4753 153.338 32.7508 156.146 32.7508Z" fill="white"/>
<path d="M177.528 47.1798L173.833 40.6176L178.59 38.1095V34.5028H169.258V35.6166C169.258 36.9566 170.344 38.0412 171.682 38.0412V38.179L167.561 41.3053V27.6663H160.167V29.6801C160.167 30.6168 160.927 31.3766 161.865 31.3766V47.1798H160.167V50.8889H168.742V47.3517H167.561V45.8739L169.895 43.8475L171.864 47.3517H170.227V50.8889H178.924V48.5729C178.922 47.8043 178.298 47.1798 177.528 47.1798Z" fill="white"/>
<path d="M187.648 47.8322C186.677 47.8322 185.648 47.4542 185.648 46.1483C185.648 44.7413 186.526 44.0865 187.617 43.8121C188.739 43.5366 190.042 43.6402 190.86 43.6743C190.86 45.7375 189.648 47.8322 187.648 47.8322ZM195.86 47.1799V39.9312C195.86 35.0528 192.194 34.0212 188.376 34.0212C186.678 34.0212 184.922 34.331 183.558 35.2235C182.195 36.1172 181.226 37.5609 181.134 39.7934H186.468C186.435 38.3156 187.133 37.2158 188.617 37.2158C189.496 37.2158 190.071 37.6279 190.375 38.2473C190.708 38.8996 190.708 39.758 190.708 40.6517C189.922 40.6517 189.103 40.6176 188.315 40.6176C187.526 40.6176 186.739 40.6859 185.951 40.7541C183.224 40.9615 180.407 42.7819 180.407 46.252C180.407 49.7562 183.104 51.3705 185.86 51.3705C188.102 51.3705 189.799 50.5804 190.981 48.4162H191.042V50.8889H197.526V48.846C197.526 47.9257 196.78 47.1799 195.86 47.1799Z" fill="white"/>
<path d="M218.137 38.2132H219.681L217.986 46.5958H217.925L215.47 34.5041H209.047L206.532 46.5958H206.471L204.774 38.2132H206.411V34.5029H197.316V36.2676C197.316 37.3421 198.187 38.2119 199.26 38.2119L202.683 50.8876H209.622L211.865 39.5848H211.926L214.047 50.8876H220.986L224.531 38.2119H225.62V34.5016H218.137V38.2132Z" fill="white"/>
<path d="M234.887 47.18V34.5043H227.493V38.2146H229.189V47.1813H227.493V50.8903H236.4V48.6957C236.4 47.8588 235.722 47.18 234.887 47.18Z" fill="white"/>
<path d="M234.273 32.7508H234.887V27.6676H229.189C229.189 30.4753 231.467 32.7508 234.273 32.7508Z" fill="white"/>
<path d="M50.0881 41.1704C50.0704 41.9933 49.3978 42.8087 48.561 43.0274C47.8632 43.2107 47.1552 43.3839 46.5345 43.5306C45.6711 43.7328 44.9682 43.2208 44.9543 42.3789C44.9404 41.3676 44.9518 33.6233 44.9518 33.6233L48.5622 32.7296C49.3991 32.5602 50.0691 33.0633 50.0893 33.8774C50.1134 34.9039 50.15 35.7863 50.1677 37.2704C50.1488 38.7621 50.1121 40.1338 50.0881 41.1704ZM29.9222 49.5631C29.9222 49.5631 29.2332 49.7894 28.3964 50.0081C27.6998 50.1914 26.9894 50.3659 26.3687 50.5112C25.5052 50.7135 24.8024 50.2015 24.7897 49.3596C24.7733 48.1308 24.7733 40.6318 24.7897 39.3942C24.8011 38.5485 25.5052 37.7066 26.3687 37.5094C26.9894 37.3665 27.6998 37.2098 28.3964 37.0682C29.1068 36.9241 29.6985 37.2654 29.8716 37.8709C29.902 38.3096 29.9273 38.2906 29.9475 38.7558C29.974 39.8632 29.9285 49.3065 29.9222 49.5631ZM55.6668 30.4718C55.6655 28.7993 54.7819 27.5099 53.3559 27.2469C53.3281 27.2229 52.7694 27.0004 51.9932 27.1812C50.528 27.525 25.6367 32.9786 23.4497 33.7042H23.4535C23.0111 33.8066 22.5661 33.9103 22.1148 34.014C20.9315 34.2883 18.9038 35.9759 18.9038 38.5877V52.9915C18.9038 55.6033 20.9328 56.3466 22.1148 56.0697C25.2474 55.3365 35.2759 52.8474 35.2759 52.8474C35.2759 52.8474 35.2848 36.608 35.3025 35.8293L38.6386 35.0645C38.9862 34.9848 39.32 35.2465 39.3212 35.6043C39.325 37.7116 39.2922 43.8479 39.2922 45.2271C39.2922 47.8388 41.3211 48.5821 42.5044 48.3053C45.6306 47.5733 48.5066 46.8932 51.9805 46.0551C54.0209 45.5621 55.6655 43.5571 55.6655 41.5623V40.843L55.7009 40.8354C55.7047 40.5851 55.7085 40.3423 55.7085 40.1097C55.706 39.5434 55.7009 38.7015 55.6946 37.6939L56.687 37.4474C58.0776 37.1048 59.0547 35.8571 59.0547 34.4248V31.5678L55.7022 32.3958C55.706 32.3971 55.6668 30.6551 55.6668 30.4718Z" fill="white"/>
<path d="M48.5622 32.7306L44.9505 33.6244C44.9505 33.6244 44.9403 41.3674 44.9542 42.3787C44.9669 43.2206 45.671 43.7326 46.5344 43.5303C47.1551 43.3837 47.8643 43.2105 48.5609 43.0272C49.3978 42.8072 50.069 41.9931 50.088 41.1702C50.112 40.1335 50.1499 38.7632 50.1664 37.2728C50.1499 35.7874 50.1133 34.9063 50.0893 33.8785C50.069 33.0644 49.399 32.5612 48.5622 32.7306Z" fill="#EE2624"/>
<path d="M29.8704 37.8706C29.6972 37.2663 29.1056 36.9237 28.3951 37.0678C27.6986 37.2094 26.9881 37.3662 26.3674 37.509C25.504 37.7075 24.8011 38.5481 24.7898 39.3939C24.7721 40.6315 24.7721 48.1305 24.7898 49.3592C24.8011 50.1999 25.504 50.7131 26.3674 50.5109C26.9881 50.3642 27.6986 50.191 28.3951 50.0077C29.232 49.789 29.9222 49.5627 29.9222 49.5627C29.9286 49.3049 29.9741 39.8641 29.9475 38.7555C29.9273 38.2915 29.902 38.3092 29.8704 37.8706Z" fill="#EE2624"/>
<path d="M46.3298 15.7303C46.3576 15.3965 46.0491 15.1323 45.723 15.2082L41.7118 16.1411C40.8142 22.2837 36.2051 23.6894 35.2305 23.9195C35.1243 23.9448 35.0497 24.0383 35.0497 24.147V28.4161C44.742 26.1634 46.1313 18.1157 46.3298 15.7303Z" fill="white"/>
<path d="M41.7106 16.1423L45.7217 15.2094C46.0492 15.1335 46.3563 15.3965 46.3298 15.7315C46.1313 18.1157 44.742 26.1633 35.0485 28.4186V24.1495C35.0485 24.0408 35.123 23.946 35.2305 23.9207C36.2052 23.6906 40.8143 22.2849 41.7106 16.1423ZM55.7099 40.1108C55.7099 40.3421 55.7073 40.5861 55.7023 40.8352L55.6669 40.844V41.5633C55.6669 43.5582 54.0222 45.5631 51.9819 46.0561C48.5092 46.8943 45.632 47.5744 42.5057 48.3051C41.3225 48.5819 39.2935 47.8386 39.2935 45.2268C39.2935 43.8464 39.3264 37.7114 39.3226 35.6041C39.3213 35.2463 38.9876 34.9846 38.6412 35.0643L35.3051 35.8291C35.2886 36.6078 35.2785 52.8472 35.2785 52.8472C35.2785 52.8472 25.25 55.3376 22.1174 56.0695C20.9341 56.3451 18.9064 55.6018 18.9064 52.9913V38.5887C18.9064 35.977 20.9341 34.2893 22.1174 34.015C22.5687 33.9114 23.0137 33.8064 23.4561 33.7053H23.4523C25.6406 32.9784 50.5306 27.5261 51.9958 27.1822C52.772 27.0002 53.3307 27.224 53.3585 27.2467C54.7832 27.5097 55.6669 28.7991 55.6681 30.4716C55.6681 30.6549 55.7073 32.3969 55.7073 32.3969L59.0586 31.5689V34.4259C59.0586 35.8582 58.0814 37.1059 56.6908 37.4485L55.6985 37.695C55.7023 38.7013 55.7086 39.5444 55.7099 40.1108ZM36.9156 6C18.5158 6 3.59998 20.9171 3.59998 39.3169C3.59998 57.7167 18.5158 72.6338 36.9156 72.6338C55.3167 72.6338 70.2325 57.718 70.2325 39.3169C70.2325 20.9158 55.3167 6 36.9156 6Z" fill="#EE2624"/>
</g>
<defs>
<clipPath id="clip0">
<rect width="240" height="80" fill="white"/>
</clipPath>
</defs>
</svg>
